<svg width="126" height="125" viewBox="0 0 126 125" fill="none" xmlns="http://www.w3.org/2000/svg">
<path d="M38.897 4.06295C25.1113 9.7925 13.8225 20.253 7.06098 33.5629C0.299461 46.8728 -1.49096 62.1585 2.01176 76.6707C5.51448 91.1828 14.0805 103.969 26.1689 112.729C38.2574 121.489 53.0749 125.649 67.9563 124.459C82.8377 123.269 96.8063 116.809 107.349 106.239C117.893 95.6699 124.319 81.6853 125.471 66.801C126.624 51.9167 122.428 37.1095 113.638 25.0428C104.847 12.9762 92.04 4.44202 77.5192 0.975373L77.0228 3.05495C91.0484 6.40338 103.419 14.6465 111.909 26.3017C120.4 37.9569 124.453 52.2591 123.34 66.6359C122.226 81.0127 116.019 94.5204 105.836 104.729C95.6521 114.938 82.1599 121.179 67.7859 122.328C53.412 123.477 39.0997 119.459 27.4235 110.998C15.7472 102.536 7.47338 90.1863 4.0901 76.1691C0.706819 62.1518 2.43618 47.3873 8.96713 34.5312C15.4981 21.6752 26.402 11.5714 39.7175 6.03724L38.897 4.06295Z" fill="#FFC83A"/>
</svg>
