<svg width="18" height="18" viewBox="0 0 18 18" fill="none" xmlns="http://www.w3.org/2000/svg">
<path d="M5.69767 1.11102C3.82879 1.88776 2.2984 3.30586 1.38176 5.11025C0.465117 6.91463 0.222394 8.98688 0.697248 10.9543C1.1721 12.9216 2.33337 14.655 3.97217 15.8426C5.61096 17.0302 7.61974 17.5941 9.63717 17.4328C11.6546 17.2715 13.5483 16.3957 14.9776 14.9628C16.4069 13.5299 17.278 11.6341 17.4343 9.61624C17.5906 7.59842 17.0217 5.59105 15.83 3.95521C14.6384 2.31937 12.9021 1.16241 10.9336 0.69245L10.6097 2.04915C12.2552 2.44199 13.7065 3.40909 14.7026 4.77649C15.6988 6.14389 16.1743 7.82185 16.0436 9.50855C15.913 11.1952 15.1848 12.78 13.9901 13.9777C12.7953 15.1755 11.2124 15.9076 9.52602 16.0424C7.83965 16.1772 6.16051 15.7059 4.79064 14.7132C3.42077 13.7204 2.45007 12.2715 2.05314 10.627C1.65621 8.98246 1.8591 7.25027 2.62532 5.74199C3.39154 4.2337 4.67079 3.04831 6.23299 2.39903L5.69767 1.11102Z" fill="#2A4BA0"/>
</svg>
