<svg width="17" height="18" viewBox="0 0 17 18" fill="none" xmlns="http://www.w3.org/2000/svg">
<path d="M5.84904 1.26215C3.98016 2.03889 2.44976 3.45699 1.53312 5.26137C0.616484 7.06576 0.373762 9.13801 0.848616 11.1054C1.32347 13.0727 2.48473 14.8061 4.12353 15.9937C5.76233 17.1813 7.7711 17.7452 9.78854 17.5839C11.806 17.4226 13.6996 16.5468 15.129 15.1139C16.5583 13.681 17.4294 11.7852 17.5857 9.76737C17.7419 7.74954 17.1731 5.74218 15.9814 4.10633C14.7898 2.47049 13.0535 1.31354 11.085 0.843573L10.7611 2.20027C12.4066 2.59311 13.8579 3.56021 14.854 4.92761C15.8501 6.29501 16.3256 7.97297 16.195 9.65967C16.0644 11.3464 15.3362 12.9311 14.1414 14.1288C12.9467 15.3266 11.3638 16.0587 9.67738 16.1935C7.99101 16.3283 6.31188 15.857 4.94201 14.8643C3.57214 13.8716 2.60144 12.4226 2.2045 10.7781C1.80757 9.13359 2.01047 7.40139 2.77668 5.89311C3.5429 4.38482 4.82216 3.19943 6.38436 2.55016L5.84904 1.26215Z" fill="#F9B023"/>
</svg>
